<?xml version="1.0" encoding="UTF-8"?>
<svg width="15px" height="15px" viewBox="0 0 15 15" version="1.1" xmlns="http://www.w3.org/2000/svg" xmlns:xlink="http://www.w3.org/1999/xlink">
    <!-- Generator: Sketch 54.1 (76490) - https://sketchapp.com -->
    <title>Shape-2</title>
    <desc>Created with Sketch.</desc>
    <g id="Page-1" stroke="none" stroke-width="1" fill="none" fill-rule="evenodd">
        <g id="Mobile" transform="translate(-164.000000, -4123.000000)" fill="#9BD135" fill-rule="nonzero">
            <g id="Pricing" transform="translate(0.000000, 3656.000000)">
                <g id="info-circle-solid" transform="translate(164.000000, 467.000000)">
                    <path d="M7.5,0 C3.35815524,0 0,3.35936492 0,7.5 C0,11.6430544 3.35815524,15 7.5,15 C11.6418448,15 15,11.6430544 15,7.5 C15,3.35936492 11.6418448,0 7.5,0 Z M7.5,3.3266129 C8.20149194,3.3266129 8.77016129,3.89528226 8.77016129,4.59677419 C8.77016129,5.29826613 8.20149194,5.86693548 7.5,5.86693548 C6.79850806,5.86693548 6.22983871,5.29826613 6.22983871,4.59677419 C6.22983871,3.89528226 6.79850806,3.3266129 7.5,3.3266129 Z M9.19354839,11.0080645 C9.19354839,11.2084778 9.03105847,11.3709677 8.83064516,11.3709677 L6.16935484,11.3709677 C5.96894153,11.3709677 5.80645161,11.2084778 5.80645161,11.0080645 L5.80645161,10.2822581 C5.80645161,10.0818448 5.96894153,9.91935484 6.16935484,9.91935484 L6.53225806,9.91935484 L6.53225806,7.98387097 L6.16935484,7.98387097 C5.96894153,7.98387097 5.80645161,7.82138105 5.80645161,7.62096774 L5.80645161,6.89516129 C5.80645161,6.69474798 5.96894153,6.53225806 6.16935484,6.53225806 L8.10483871,6.53225806 C8.30525202,6.53225806 8.46774194,6.69474798 8.46774194,6.89516129 L8.46774194,9.91935484 L8.83064516,9.91935484 C9.03105847,9.91935484 9.19354839,10.0818448 9.19354839,10.2822581 L9.19354839,11.0080645 Z" id="Shape-2"></path>
                </g>
            </g>
        </g>
    </g>
</svg>