<?xml version="1.0" encoding="UTF-8"?>
<svg width="42px" height="51px" viewBox="0 0 42 51" version="1.1" xmlns="http://www.w3.org/2000/svg" xmlns:xlink="http://www.w3.org/1999/xlink">
    <!-- Generator: Sketch 54.1 (76490) - https://sketchapp.com -->
    <title>Ingredient-5</title>
    <desc>Created with Sketch.</desc>
    <g id="Page-1" stroke="none" stroke-width="1" fill="none" fill-rule="evenodd">
        <g id="Mobile" transform="translate(-138.000000, -1228.000000)" stroke="#FD9200" stroke-width="2">
            <g id="Ingredients" transform="translate(14.000000, 538.000000)">
                <g id="Branding" transform="translate(18.000000, 691.000000)">
                    <g id="Ingredient-5" transform="translate(108.000000, 0.000000)">
                        <path d="M30.3000094,21.1 L30.3,42.97 C30.3026554,44.3773792 29.7454367,45.7280254 28.7512059,46.7241321 C27.7569751,47.7202387 26.4073817,48.2800025 25,48.28 L7.85,48.28 C4.91736798,48.28 2.54,45.902632 2.54,42.97 L2.54,21.1 L30.3000094,21.1 Z" id="Path"></path>
                        <path d="M38.49,31.29 C38.49,34.95 34.9,37.91 30.49,37.91 L30.32,37.91 L30.32,24.6899747 L30.49,24.69 C34.9,24.68 38.49,27.64 38.49,31.29 Z" id="Path"></path>
                        <path d="M30.3606261,13.7321541 C30.3606261,13.7321541 26.7806261,13.7921541 27.0106261,10.3721541 C27.2206261,7.12215415 30.4406261,5.78215415 29.0606261,2.37215415 C29.0210971,2.27543285 29.0409228,2.16458666 29.1115273,2.08756359 C29.1821318,2.01054051 29.290839,1.98116902 29.3906261,2.01215415 C31.5006261,2.72215415 32.8806261,4.81215415 33.6306261,6.33215415 C34.3025305,7.62646547 34.5275458,9.1066439 34.2706261,10.5421541 C34.1772552,11.4845581 33.7122412,12.3509209 32.9784541,12.949586 C32.2446671,13.5482512 31.3025891,13.829874 30.3606261,13.7321541 L30.3606261,13.7321541 Z" id="Path"></path>
                        <path d="M23,21.14 L28.03,13" id="Path"></path>
                        <path d="M32,13.625 L27.85,21.14" id="Path"></path>
                        <polyline id="Path" points="13.14 20.82 13.14 0.14 21.83 0.14 21.83 20.65"></polyline>
                        <path d="M16.22,4.4 L21.83,4.4" id="Path"></path>
                        <path d="M18.13,8.66 L21.66,8.66" id="Path"></path>
                        <path d="M16.22,12.64 L21.83,12.64" id="Path"></path>
                        <path d="M18.13,16.9 L21.66,16.9" id="Path"></path>
                        <polygon id="Path" points="8.8817842e-15 7.93 6.22 12.26 11.48 20.95 4.79 20.95 1.39 14.72"></polygon>
                        <path d="M1.67,15.23 L6.29,12.02" id="Path"></path>
                    </g>
                </g>
            </g>
        </g>
    </g>
</svg>