<?xml version="1.0" encoding="UTF-8"?>
<svg width="50px" height="45px" viewBox="0 0 50 45" version="1.1" xmlns="http://www.w3.org/2000/svg" xmlns:xlink="http://www.w3.org/1999/xlink">
    <!-- Generator: Sketch 54.1 (76490) - https://sketchapp.com -->
    <title>Ingredient-1</title>
    <desc>Created with Sketch.</desc>
    <g id="Page-1" stroke="none" stroke-width="1" fill="none" fill-rule="evenodd">
        <g id="Mobile" transform="translate(-133.000000, -537.000000)">
            <g id="Ingredients" transform="translate(14.000000, 538.000000)">
                <g id="Affordable" transform="translate(6.000000, 0.000000)">
                    <g id="Ingredient-1" transform="translate(114.000000, 0.000000)">
                        <circle id="Oval" fill="#9FCD39" fill-rule="nonzero" cx="11.51" cy="17.07" r="1.99"></circle>
                        <path d="M43.76,19.94 C43.76,28.94 34.76,36.23 23.76,36.23 C15.46,36.23 8.34,32.13 5.3,26.28 C5.23961922,26.1582905 5.11586084,26.0809415 4.98,26.08 L0.38,26.08 C0.189658017,26.0598939 0.0439778919,25.9013596 0.04,25.71 L0.04,18.28 C0.04,18.0701318 0.210131795,17.9 0.42,17.9 L3.56,17.9 C3.73925401,17.8975248 3.8909461,17.7669011 3.92,17.59 C4.74,12.98 7.92,8.99 12.46,6.48 C12.6357343,6.39077261 12.707051,6.1768225 12.62,6 C11.8,4.42 10.41,2.25 8.56,1.39 C8.44153492,1.32236203 8.36841444,1.19641433 8.36841444,1.06 C8.36841444,0.92358567 8.44153492,0.797637972 8.56,0.73 C12.2686647,-0.918204357 16.6246201,0.432612042 18.75,3.89 C18.8199334,4.03052063 18.9769697,4.10490625 19.13,4.07 C20.6403967,3.78975782 22.1738433,3.65248422 23.71,3.66 C34.78,3.66 43.76,10.94 43.76,19.94 Z" id="Path" stroke="#A0CC39" stroke-width="2"></path>
                        <path d="M15.38,34.87 L15.38,43.06" id="Path" stroke="#A0CC39" stroke-width="2"></path>
                        <path d="M32.26,34.62 L32.26,42.69" id="Path" stroke="#A0CC39" stroke-width="2"></path>
                        <path d="M43.76,19.94 C43.76,19.94 47.44,19.94 47.66,15.16" id="Path" stroke="#A0CC39" stroke-width="2"></path>
                        <path d="M21.71,8.66 C25.9231432,8.02434392 30.2025175,9.27523793 33.41,12.08" id="Path" stroke="#A0CC39" stroke-width="2"></path>
                    </g>
                </g>
            </g>
        </g>
    </g>
</svg>