<?xml version="1.0" encoding="UTF-8"?>
<svg width="51px" height="47px" viewBox="0 0 51 47" version="1.1" xmlns="http://www.w3.org/2000/svg" xmlns:xlink="http://www.w3.org/1999/xlink">
    <!-- Generator: Sketch 54.1 (76490) - https://sketchapp.com -->
    <title>Ingredient-3</title>
    <desc>Created with Sketch.</desc>
    <g id="Page-1" stroke="none" stroke-width="1" fill="none" fill-rule="evenodd">
        <g id="Mobile" transform="translate(-135.000000, -881.000000)" stroke="#D34784" stroke-width="2">
            <g id="Ingredients" transform="translate(14.000000, 538.000000)">
                <g id="Google-Friendly" transform="translate(21.000000, 344.000000)">
                    <g id="Ingredient-3" transform="translate(101.000000, 0.000000)">
                        <circle id="Oval" cx="10.33" cy="33.9392394" r="10.33"></circle>
                        <circle id="Oval" cx="37.71" cy="33.9392394" r="10.33"></circle>
                        <path d="M4.25,34.2092394 C4.15248813,32.3713413 4.83510082,30.5776315 6.12983771,29.2695664 C7.42457461,27.9615013 9.21119968,27.2605548 11.05,27.3392394" id="Path" stroke-linecap="round"></path>
                        <path d="M31.2,34.2092394 C31.0993271,32.370492 31.7809127,30.5749188 33.076366,29.26613 C34.3718192,27.9573412 36.160318,27.2574026 38,27.3392394" id="Path" stroke-linecap="round"></path>
                        <path d="M14.27,18.6292394 C14.27,18.6292394 18.2945262,11.6992394 27.9266332,14.1092394 C30.3792531,14.7392394 33.244359,16.3792394 34.27,18.7492394" id="Path" stroke-linecap="round"></path>
                        <path d="M21.24,10.9992394 L21.24,1.65923939 C21.24,1.39923939 20.99,1.15923939 20.78,0.999239385 C19.1924965,-0.333079795 16.8775035,-0.333079795 15.29,0.999239385 C14.7738194,1.400071 14.3904728,1.94721121 14.19,2.56923939 L12.53,7.30923939 C12.1087982,8.4712166 11.4933884,9.55325583 10.71,10.5092394 C8.96,12.6292394 2.82,21.7192394 0.58,30.3992394" id="Path"></path>
                        <path d="M26.8,10.9992394 L26.8,1.65923939 C26.8,1.39923939 27.05,1.15923939 27.26,0.999239385 C28.8475035,-0.333079795 31.1624965,-0.333079795 32.75,0.999239385 C33.2663255,1.40204463 33.6524232,1.94814685 33.86,2.56923939 C34.34,3.96923939 35.01,5.88923939 35.51,7.30923939 C35.9312018,8.4712166 36.5466116,9.55325583 37.33,10.5092394 C39.08,12.6292394 45.22,21.7192394 47.46,30.3992394" id="Path"></path>
                        <path d="M20.67,34.0292394 L20.64,14.4092394" id="Path"></path>
                        <path d="M27.35,34.1792394 L27.32,14.5492394" id="Path"></path>
                    </g>
                </g>
            </g>
        </g>
    </g>
</svg>