<?xml version="1.0" encoding="UTF-8"?>
<svg width="43px" height="38px" viewBox="0 0 43 38" version="1.1" xmlns="http://www.w3.org/2000/svg" xmlns:xlink="http://www.w3.org/1999/xlink">
    <!-- Generator: Sketch 54.1 (76490) - https://sketchapp.com -->
    <title>Shape</title>
    <desc>Created with Sketch.</desc>
    <defs>
        <filter x="-1.9%" y="-2.5%" width="103.9%" height="105.0%" filterUnits="objectBoundingBox" id="filter-1">
            <feOffset dx="0" dy="2" in="SourceAlpha" result="shadowOffsetOuter1"></feOffset>
            <feGaussianBlur stdDeviation="2" in="shadowOffsetOuter1" result="shadowBlurOuter1"></feGaussianBlur>
            <feColorMatrix values="0 0 0 0 0   0 0 0 0 0   0 0 0 0 0  0 0 0 0.5 0" type="matrix" in="shadowBlurOuter1" result="shadowMatrixOuter1"></feColorMatrix>
            <feMerge>
                <feMergeNode in="shadowMatrixOuter1"></feMergeNode>
                <feMergeNode in="SourceGraphic"></feMergeNode>
            </feMerge>
        </filter>
    </defs>
    <g id="Page-1" stroke="none" stroke-width="1" fill="none" fill-rule="evenodd">
        <g id="Mobile" transform="translate(-270.000000, -11.000000)" fill="#000000" fill-rule="nonzero">
            <g id="Header" filter="url(#filter-1)" transform="translate(-150.000000, -15.000000)">
                <g id="Top" transform="translate(159.000000, 22.000000)">
                    <g id="bars-solid" transform="translate(265.000000, 6.000000)">
                        <path d="M1.25,5.51020408 L33.75,5.51020408 C34.4403906,5.51020408 35,4.96201531 35,4.28571429 L35,1.2244898 C35,0.548188776 34.4403906,0 33.75,0 L1.25,0 C0.559609375,0 0,0.548188776 0,1.2244898 L0,4.28571429 C0,4.96201531 0.559609375,5.51020408 1.25,5.51020408 Z M1.25,17.755102 L33.75,17.755102 C34.4403906,17.755102 35,17.2069133 35,16.5306122 L35,13.4693878 C35,12.7930867 34.4403906,12.244898 33.75,12.244898 L1.25,12.244898 C0.559609375,12.244898 0,12.7930867 0,13.4693878 L0,16.5306122 C0,17.2069133 0.559609375,17.755102 1.25,17.755102 Z M1.25,30 L33.75,30 C34.4403906,30 35,29.4518112 35,28.7755102 L35,25.7142857 C35,25.0379847 34.4403906,24.4897959 33.75,24.4897959 L1.25,24.4897959 C0.559609375,24.4897959 0,25.0379847 0,25.7142857 L0,28.7755102 C0,29.4518112 0.559609375,30 1.25,30 Z" id="Shape"></path>
                    </g>
                </g>
            </g>
        </g>
    </g>
</svg>